<svg height="512pt" viewBox="0 0 512.001 512" width="512pt" xmlns="http://www.w3.org/2000/svg"><path d="m139.472656 437.089844-6.738281-5.859375c-10.636719-9.230469-20.144531-19.394531-28.273437-30.222657-25.953126-34.867187-70.199219-151.59375-104.460938-248.261718 74.191406 59.195312 90.621094 74.480468 142.53125 119.386718 3.253906 22.773438 10.992188 78.097657 18.910156 99.695313 4.03125 11.105469 9.304688 21.898437 16.113282 33.046875l2.214843 3.605469v16.378906l-11.53125 2.738281c-6.882812 1.640625-13.769531 3.851563-20.402343 6.34375zm0 0" fill="#5bc980"/><path d="m255.0625 0c-14.097656 53.699219-41.402344 143.597656-62.402344 245.300781 15 23.699219 37.199219 59.699219 49.199219 85.199219l13.203125 28.5.296875.601562 13.5-29.097656c11.402344-24.601562 34.5-61.800781 48.601563-84.902344-18.898438-91.203124-39-156.5-62.398438-245.601562zm0 0" fill="#5bc980"/><g fill="#00ab5e"><path d="m255.363281 359.597656-.300781-.597656v-359c23.402344 89.101562 43.5 154.398438 62.402344 245.601562-14.101563 23.101563-37.203125 60.300782-48.601563 84.898438zm0 0"/><path d="m157.621094 429.75-5.640625-9.230469c-7.894531-12.875-14.003907-25.441406-18.722657-38.40625-6.046874-16.496093-12.113281-47.402343-19.644531-100.195312-13.25-94.628907-21.929687-202.042969-25.910156-248.730469 24.710937 35.933594 83.019531 119.9375 133.59375 201.183594 21.503906 34.230468 38.421875 63.878906 47.636719 83.449218l1.421875 10.007813-1.40625 3c-1.816407 3.914063-3.414063 7.28125-4.46875 10.417969-8.085938 22.394531-11.105469 44.9375-8.644531 63.808594l2.226562 16.945312h-44.707031c-14.75 0-29.953125 1.789062-45.203125 5.316406zm0 0"/><path d="m368.175781 436.195312-8.363281-3.179687c-5.640625-2.152344-11.542969-4.042969-17.460938-5.375l-20.667968-4.675781 11.277344-17.941406c6.125-9.726563 11.648437-21.183594 16.011718-33.148438 8.316406-23.46875 15.945313-78.953125 19.175782-103.640625 52.03125-44.523437 92.742187-74.519531 143.851562-113.625-34.351562 96.535156-84.121094 211.699219-109.910156 246.339844-8.1875 11.0625-17.328125 20.964843-27.128906 29.414062zm0 0"/></g><path d="m288.660156 235.097656c-14.097656 22.800782-25.199218 41.703125-33.597656 57.003906-5.402344 9.898438-9.902344 18.597657-13.203125 25.800782l-1.5 3.300781c-1.796875 3.894531-3.296875 7.199219-4.199219 10.199219-9.597656 26.398437-13.199218 54-10.199218 77.398437l1.800781 13.199219h69c15.300781 0 30.597656 1.800781 45.300781 5.703125l10.5 2.398437 5.699219-9c7.199219-11.699218 13.800781-24.898437 18.898437-39 8.699219-24.601562 16.199219-75.898437 20.101563-104.101562 13.5-97.199219 22.5-208.5 25.5-244.5-25.5 36.898438-84 120.898438-134.101563 201.597656zm0 0" fill="#7fe881"/><path d="m477.660156 488.597656c-26.648437-39.765625-66.460937-69.355468-107.097656-83.695312-6.902344-2.703125-14.402344-4.804688-21.300781-6.304688-17.101563-4.496094-34.800781-6.597656-52.5-6.597656h-83.402344c-17.097656 0-34.496094 2.101562-51.898437 6l-11.699219 3v.601562c-42.058594 12.007813-87.011719 42.269532-117.296875 86.996094l-1.800782 2.703125h448.796876zm0 0" fill="#ffda2d"/><path d="m422.761719 33.5c-3 36-12 147.300781-25.5 244.5-3.902344 28.203125-11.402344 79.5-20.101563 104.101562-5.097656 14.101563-11.699218 27.296876-18.898437 39l-5.699219 9-10.5-2.398437c-14.703125-3.902344-30-5.703125-45.300781-5.703125h-41.699219v-129.902344c8.402344-15.296875 19.5-34.199218 33.601562-57 50.097657-80.699218 108.597657-164.699218 134.097657-201.597656zm0 0" fill="#5bc980"/><path d="m479.460938 491.300781h-224.398438v-99.300781h41.699219c17.699219 0 35.398437 2.101562 52.5 6.597656 6.898437 1.5 14.398437 3.601563 21.300781 6.304688 40.488281 14.289062 80.34375 43.769531 107.097656 83.695312zm0 0" fill="#eebf00"/><path d="m.0625 482h511.9375v30h-511.9375zm0 0" fill="#eebf00"/><path d="m255.0625 482h256.9375v30h-256.9375zm0 0" fill="#dc9e00"/></svg>