<?xml version="1.0" encoding="UTF-8"?>
<!DOCTYPE svg PUBLIC "-//W3C//DTD SVG 1.1//EN" "http://www.w3.org/Graphics/SVG/1.1/DTD/svg11.dtd">
<!-- Creator: CorelDRAW 2019 (64-Bit) -->
<svg xmlns="http://www.w3.org/2000/svg" xml:space="preserve" width="40mm" height="40mm" version="1.1" style="shape-rendering:geometricPrecision; text-rendering:geometricPrecision; image-rendering:optimizeQuality; fill-rule:evenodd; clip-rule:evenodd"
viewBox="0 0 4000 4000"
 xmlns:xlink="http://www.w3.org/1999/xlink">
 <defs>
  <style type="text/css">
   <![CDATA[
    .fil0 {fill:white}
   ]]>
  </style>
 </defs>
 <g id="Capa_x0020_1">
  <metadata id="CorelCorpID_0Corel-Layer"/>
  <path class="fil0" d="M1704.87 326.15c-187.46,44.33 -261.57,49.23 -439.36,148.34 -134.11,74.7 -235.51,167.94 -318.63,274.1 -449.22,573.54 -163.89,1308.55 -407.43,1963.57 -88.87,239.23 -213.77,357.81 -384.19,502.43 -24.87,21.22 -151.35,119.95 -161.86,136.07l3909.7 0.46c-8.49,-14.3 -134.24,-116.22 -158.4,-135.09 -516.02,-403.45 -496.43,-903.33 -514.71,-1559.08 -14.1,-503.21 -179.23,-944.46 -590.97,-1180.63 -146.52,-84.03 -257.39,-110.02 -442.82,-149.98 -12.08,-93.83 -12.67,-115.63 -69.08,-170.68 -96.57,-94.28 -254.97,-93.3 -352.39,-4.57 -48.97,44.66 -61.7,87.89 -69.86,175.06z"/>
  <path class="fil0" d="M2475.07 3565.15l-1049.13 -0.46c-11.5,91.22 92.91,244.72 168.65,307.47 269.92,223.57 654.69,147.37 819.56,-127.78 22.59,-37.8 65.55,-126.86 60.92,-179.23z"/>
 </g>
</svg>
