<?xml version="1.0" encoding="UTF-8"?>
<!DOCTYPE svg PUBLIC "-//W3C//DTD SVG 1.1//EN" "http://www.w3.org/Graphics/SVG/1.1/DTD/svg11.dtd">
<!-- Creator: CorelDRAW 2019 (64-Bit) -->
<svg xmlns="http://www.w3.org/2000/svg" xml:space="preserve" width="40mm" height="40mm" version="1.1" style="shape-rendering:geometricPrecision; text-rendering:geometricPrecision; image-rendering:optimizeQuality; fill-rule:evenodd; clip-rule:evenodd"
viewBox="0 0 4000 4000"
 xmlns:xlink="http://www.w3.org/1999/xlink">
 <defs>
  <style type="text/css">
   <![CDATA[
    .fil0 {fill:white}
   ]]>
  </style>
 </defs>
 <g id="Capa_x0020_1">
  <metadata id="CorelCorpID_0Corel-Layer"/>
  <path class="fil0" d="M1993.31 6.68c27.43,0 54.67,0.53 81.75,1.67 2.19,47.99 15.91,96.16 42.1,140.28 85.43,143.1 270.54,189.95 413.64,104.51 55.37,-32.96 96.42,-80.95 120.77,-135.62 145.64,50.8 283.64,117.95 411.71,199.26 -22.15,42.63 -34.37,91.32 -33.58,142.65 2.29,166.66 139.32,299.73 305.79,297.45 64.34,-0.97 123.5,-21.8 172.02,-56.79 99.58,115.32 186.16,241.9 257.45,377.87 -40.52,26.02 -75.42,62.06 -100.56,106.88 -81.21,145.56 -29.18,329.35 116.2,410.48 56.17,31.38 118.22,42.9 177.73,36.92 22.94,121.3 35.07,246.37 35.07,374.35 0,27.34 -0.53,54.67 -1.76,81.74 -47.99,2.29 -96.07,15.91 -140.19,42.19 -143.19,85.35 -190.04,270.55 -104.6,413.56 32.96,55.37 80.86,96.33 135.62,120.77 -50.71,145.64 -117.95,283.73 -199.26,411.79 -42.63,-22.23 -91.32,-34.45 -142.65,-33.66 -166.66,2.37 -299.73,139.32 -297.45,305.88 0.97,64.25 21.8,123.41 56.79,171.84 -115.32,99.67 -241.9,186.25 -377.96,257.62 -25.93,-40.69 -61.88,-75.5 -106.88,-100.64 -145.47,-81.22 -329.18,-29.18 -410.39,116.2 -31.38,56.25 -42.98,118.22 -36.83,177.73 -121.39,22.94 -246.46,34.98 -374.53,34.98 -27.25,0 -54.58,-0.53 -81.57,-1.67 -2.37,-47.99 -15.91,-96.16 -42.27,-140.28 -85.26,-143.1 -270.55,-189.95 -413.65,-104.51 -55.28,32.96 -96.24,80.95 -120.68,135.62 -145.64,-50.8 -283.73,-117.95 -411.79,-199.26 22.23,-42.63 34.45,-91.32 33.75,-142.66 -2.46,-166.65 -139.32,-299.72 -305.97,-297.44 -64.25,0.97 -123.41,21.8 -171.84,56.78 -99.67,-115.32 -186.16,-241.89 -257.62,-377.86 40.69,-26.02 75.5,-62.06 100.73,-106.89 81.13,-145.55 29.09,-329.35 -116.29,-410.47 -56.25,-31.38 -118.13,-42.99 -177.64,-36.92 -23.03,-121.3 -35.07,-246.37 -35.07,-374.44 0,-27.25 0.62,-54.5 1.76,-81.66 47.9,-2.28 96.07,-15.91 140.19,-42.19 143.1,-85.34 189.86,-270.54 104.51,-413.55 -32.96,-55.37 -80.86,-96.16 -135.45,-120.68 50.72,-145.65 117.87,-283.73 199.18,-411.8 42.8,22.15 91.23,34.37 142.65,33.58 166.57,-2.37 299.64,-139.32 297.36,-305.88 -0.97,-64.17 -21.89,-123.32 -56.78,-171.75 115.23,-99.5 242.06,-186.34 377.86,-257.71 26.02,40.69 62.06,75.5 106.89,100.64 145.55,81.21 329.35,29.18 410.47,-116.2 31.38,-56.26 42.9,-118.22 36.92,-177.64 121.3,-23.03 246.37,-35.07 374.35,-35.07zm0 852.51c633.65,0 1147.49,513.84 1147.49,1147.4 0,633.65 -513.84,1147.49 -1147.49,1147.49 -633.64,0 -1147.31,-513.84 -1147.31,-1147.49 0,-633.56 513.67,-1147.4 1147.31,-1147.4z"/>
 </g>
</svg>
