<?xml version="1.0" encoding="UTF-8"?>
<!DOCTYPE svg PUBLIC "-//W3C//DTD SVG 1.1//EN" "http://www.w3.org/Graphics/SVG/1.1/DTD/svg11.dtd">
<!-- Creator: CorelDRAW 2019 (64-Bit) -->
<svg xmlns="http://www.w3.org/2000/svg" xml:space="preserve" width="48.0649mm" height="49.009mm" version="1.1" style="shape-rendering:geometricPrecision; text-rendering:geometricPrecision; image-rendering:optimizeQuality; fill-rule:evenodd; clip-rule:evenodd"
viewBox="0 0 4691 4783.14"
 xmlns:xlink="http://www.w3.org/1999/xlink">
 <defs>
  <style type="text/css">
   <![CDATA[
    .fil1 {fill:white}
    .fil0 {fill:white;fill-rule:nonzero}
   ]]>
  </style>
 </defs>
 <g id="Capa_x0020_1">
  <metadata id="CorelCorpID_0Corel-Layer"/>
  <path class="fil0" d="M705.23 3980.18l-208.66 0 0 686.74c0,39.62 -9.25,68.68 -26.42,87.16 -17.17,19.81 -40.93,29.05 -68.66,29.05 -27.74,0 -51.52,-9.24 -70,-29.05 -17.17,-19.81 -26.42,-48.86 -26.42,-87.16l0 -686.74 -208.66 0c-33.02,0 -56.78,-7.92 -72.64,-21.13 -15.84,-14.53 -23.76,-34.33 -23.76,-58.11 0,-23.77 7.92,-43.59 23.76,-58.11 17.17,-14.53 40.94,-21.13 72.64,-21.13l608.82 0c33.02,0 58.12,6.6 73.96,22.45 15.86,14.53 25.09,33.02 25.09,56.79 0,23.77 -9.23,43.58 -25.09,58.11 -15.84,13.2 -40.94,21.13 -73.96,21.13zm212.63 396.2l0 -454.31c0,-39.62 9.24,-67.35 26.42,-87.16 17.17,-19.81 39.61,-29.05 68.68,-29.05 29.05,0 52.83,9.24 69.99,29.05 17.17,19.81 26.42,48.87 26.42,87.16l0 464.88c0,52.83 6.61,96.41 18.48,132.07 10.56,35.65 31.69,63.39 62.08,83.2 30.36,19.81 72.62,29.05 126.78,29.05 73.96,0 126.79,-19.81 158.48,-59.43 30.38,-39.62 46.22,-100.38 46.22,-180.94l0 -468.84c0,-39.62 9.25,-68.68 26.42,-87.16 17.16,-19.81 39.61,-29.05 68.66,-29.05 29.05,0 51.52,9.24 70.01,29.05 17.17,18.48 26.42,47.54 26.42,87.16l0 454.31c0,73.96 -6.61,136.03 -21.15,184.9 -14.52,50.18 -42.26,92.44 -81.87,130.74 -34.34,31.7 -73.96,54.15 -120.18,68.68 -44.9,15.85 -99.04,22.45 -159.8,22.45 -72.64,0 -134.71,-7.92 -187.54,-23.76 -52.83,-15.85 -95.09,-39.62 -128.1,-72.64 -33.03,-33.02 -58.12,-75.28 -72.64,-126.78 -15.84,-51.51 -23.77,-112.27 -23.77,-183.58zm1321.99 248.29l-151.88 -602.22 0 652.41c0,35.66 -7.92,63.4 -23.77,80.57 -15.84,18.48 -38.3,27.73 -64.71,27.73 -25.08,0 -46.21,-9.24 -62.07,-26.41 -17.16,-18.48 -25.09,-44.9 -25.09,-81.88l0 -747.5c0,-42.26 10.56,-70 31.69,-84.52 22.47,-14.53 51.52,-21.13 87.17,-21.13l59.44 0c35.65,0 62.07,2.64 77.91,9.24 15.85,6.61 27.74,18.49 35.65,35.66 7.92,15.84 17.17,43.58 26.42,81.87l137.35 517.7 137.35 -517.7c10.57,-38.3 18.48,-66.03 26.41,-81.87 7.93,-17.17 19.82,-29.05 35.65,-35.66 15.86,-6.61 42.26,-9.24 77.93,-9.24l59.44 0c35.65,0 64.71,6.6 87.15,21.13 21.13,14.52 31.69,42.26 31.69,84.52l0 747.5c0,35.66 -7.92,63.4 -23.77,80.57 -15.84,18.48 -38.29,27.73 -64.71,27.73 -25.08,0 -46.22,-9.24 -62.07,-27.73 -17.16,-17.17 -25.09,-44.9 -25.09,-80.57l0 -652.41 -151.88 602.22c-9.23,38.3 -17.17,67.35 -23.76,85.85 -6.6,18.48 -17.18,34.33 -34.33,50.18 -17.17,14.53 -39.62,22.45 -70,22.45 -22.46,0 -40.94,-5.28 -56.78,-14.52 -15.86,-9.24 -27.74,-22.46 -35.67,-36.98 -9.23,-15.85 -15.84,-31.7 -21.13,-50.18 -3.96,-18.49 -9.23,-36.98 -14.52,-56.79zm1385.37 35.66l-44.9 -118.86 -384.31 0 -44.9 121.5c-17.17,46.22 -33.01,79.24 -44.89,95.09 -13.2,17.18 -33.03,25.09 -62.07,25.09 -23.78,0 -44.91,-9.24 -63.39,-26.41 -18.49,-17.17 -27.74,-38.3 -27.74,-59.43 0,-13.2 2.64,-26.42 6.61,-40.94 3.95,-13.2 11.88,-33.02 21.13,-56.79l241.68 -614.11c6.61,-17.17 15.84,-38.3 25.09,-63.39 9.23,-25.09 19.8,-44.9 30.36,-62.07 11.9,-15.85 26.43,-29.05 43.6,-39.61 18.48,-9.25 39.61,-14.53 66.03,-14.53 26.4,0 48.86,5.28 67.35,14.53 17.17,10.56 31.7,23.76 42.26,39.61 11.88,15.85 21.13,33.02 27.74,51.51 7.92,18.48 17.16,42.26 29.05,72.63l246.96 610.15c19.81,46.22 29.05,80.56 29.05,101.69 0,21.13 -9.24,40.94 -27.74,59.44 -17.16,18.48 -39.62,27.73 -66.02,27.73 -14.54,0 -27.74,-2.64 -38.3,-7.92 -10.57,-5.29 -19.82,-13.21 -27.74,-22.46 -6.61,-9.24 -14.53,-23.77 -22.45,-42.26 -9.25,-18.49 -15.86,-35.66 -22.47,-50.18zm-379.03 -262.82l282.63 0 -142.65 -389.59 -139.98 389.59zm1090.88 1.33l-175.66 0 0 268.09c0,38.31 -9.24,66.03 -26.42,85.85 -18.48,21.13 -40.94,30.37 -68.68,30.37 -29.05,0 -52.81,-9.24 -69.98,-29.05 -17.17,-19.81 -26.43,-48.86 -26.43,-85.84l0 -729.01c0,-42.26 9.26,-72.63 29.05,-91.13 19.81,-17.17 50.19,-26.41 92.45,-26.41l245.65 0c72.62,0 128.1,5.28 167.71,17.17 38.3,10.57 72.65,27.74 100.38,52.83 27.74,25.09 48.87,55.46 63.39,91.13 15.84,36.97 22.45,77.91 22.45,122.82 0,96.41 -29.04,169.05 -88.48,219.23 -59.44,48.87 -147.91,73.96 -265.45,73.96zm-46.23 -433.18l-129.42 0 0 289.22 129.42 0c44.89,0 83.2,-5.28 113.58,-14.52 29.05,-9.25 52.83,-25.09 68.66,-46.22 15.86,-21.14 23.78,-50.19 23.78,-84.53 0,-42.26 -11.9,-75.28 -36.99,-101.69 -27.72,-27.74 -83.19,-42.26 -169.04,-42.26z"/>
  <path class="fil1" d="M2615.95 373.15c211.23,0 310.91,9.28 504.69,99.51 18.24,8.5 24.04,10.22 41.33,19.76 54.52,30.09 139.81,82 182.18,123.29 51.99,50.66 46.82,34.22 92.21,91.09 10.38,13.01 18.07,18.88 29.98,31.1 84.94,87.16 182.25,284.63 210.13,400.84 63.65,265.22 38.13,462.06 -61.63,708.48 -11.52,28.41 -16.93,37.65 -32.01,63.03 -13.69,23.04 -20.7,38.05 -34.59,60.45l-126.08 159.04c-33.47,33.09 -62.94,61.3 -99.19,90.9 -31.7,25.88 -74.44,57.87 -111.92,78.15 -46.27,25.02 -78.5,45.74 -130.51,66.36 -210.89,83.59 -426.49,111.02 -650.64,54.11 -203.27,-51.6 -348.5,-133.41 -491.1,-276l-130.74 -154.38c-82.44,-116.35 -165.88,-340.38 -169.66,-495.63 -0.95,-38.89 -8.34,-49.34 -7.23,-88.24 8.09,-283.67 116.7,-538.8 314.4,-738.28 20.55,-20.73 28.84,-26.04 50.6,-44.45 66.3,-56.09 152.85,-120.52 233.79,-153.16 114.22,-46.06 233.53,-95.99 385.99,-95.99zm-1350.92 950.4c0,154.01 -4.78,174.58 21.24,331.76 18.93,114.27 62.87,236.25 109.97,338.08 93.82,202.79 140.75,107.04 -149.88,397.67 -80.86,80.85 -156.73,156.73 -237.59,237.59 -77.29,77.29 -295.15,282.1 -345.84,366.98 -181.4,303.74 121.25,605.37 419.27,426.05 91.8,-55.24 283.15,-260.31 367.82,-344.98l414.11 -414.11c97.53,-97.89 62.06,-34.54 379.42,85.6 318.49,120.57 748.36,82.5 1044.5,-66.9 136.67,-68.94 233.2,-132.39 344.37,-239.46 18.72,-18.05 30.41,-21.72 47.87,-40.38 16.04,-17.16 19.23,-26.62 36.99,-44.48 104.55,-105.04 170.68,-225.07 236.06,-354.54 195.7,-387.6 162.36,-934.68 -58.15,-1299.62 -104.77,-173.4 -241.99,-332.17 -408.94,-446.43 -87.14,-59.65 -113.05,-74.92 -213.98,-125.45 -340.45,-170.46 -845.74,-177.13 -1188.13,-4.49 -111.6,56.26 -104.48,48.84 -212.24,120.4 -36.31,24.1 -64.1,46.99 -96.85,72.87 -19.52,15.45 -25.32,19.81 -43.27,38.19 -19.4,19.85 -28.16,23.63 -47.59,40.65 -30.22,26.48 -127.89,149.78 -152.86,179.8 -142.85,171.72 -266.29,515.49 -266.29,745.19z"/>
  <path class="fil0" d="M3162.58 1029.36l-326.74 0 0 1075.29c0,62.03 -14.46,107.52 -41.35,136.48 -26.88,31.02 -64.11,45.49 -107.52,45.49 -43.42,0 -80.65,-14.47 -109.59,-45.49 -26.9,-31.02 -41.37,-76.52 -41.37,-136.48l0 -1075.29 -326.71 0c-51.71,0 -88.93,-12.41 -113.74,-33.09 -24.82,-22.75 -37.22,-53.77 -37.22,-90.99 0,-37.22 12.4,-68.24 37.22,-90.99 26.88,-22.74 64.11,-33.09 113.74,-33.09l953.28 0c51.7,0 90.97,10.35 115.8,35.15 24.81,22.75 39.28,51.7 39.28,88.92 0,37.22 -14.47,68.24 -39.28,90.99 -24.83,20.67 -64.1,33.09 -115.8,33.09z"/>
 </g>
</svg>
