<?xml version="1.0" encoding="UTF-8"?>
<!DOCTYPE svg PUBLIC "-//W3C//DTD SVG 1.1//EN" "http://www.w3.org/Graphics/SVG/1.1/DTD/svg11.dtd">
<!-- Creator: CorelDRAW 2019 (64-Bit) -->
<svg xmlns="http://www.w3.org/2000/svg" xml:space="preserve" width="48.0649mm" height="49.009mm" version="1.1" style="shape-rendering:geometricPrecision; text-rendering:geometricPrecision; image-rendering:optimizeQuality; fill-rule:evenodd; clip-rule:evenodd"
viewBox="0 0 2618.3 2669.73"
 xmlns:xlink="http://www.w3.org/1999/xlink">
 <defs>
  <style type="text/css">
   <![CDATA[
    .fil1 {fill:#2C689F}
    .fil0 {fill:#2C689F;fill-rule:nonzero}
   ]]>
  </style>
 </defs>
 <g id="Capa_x0020_1">
  <metadata id="CorelCorpID_0Corel-Layer"/>
  <g id="_1100781104">
   <path class="fil0" d="M393.63 2221.55l-116.47 0 0 383.31c0,22.12 -5.16,38.33 -14.75,48.65 -9.58,11.06 -22.85,16.22 -38.32,16.22 -15.48,0 -28.76,-5.16 -39.07,-16.22 -9.58,-11.06 -14.75,-27.27 -14.75,-48.65l0 -383.31 -116.47 0c-18.43,0 -31.69,-4.42 -40.55,-11.79 -8.84,-8.11 -13.26,-19.16 -13.26,-32.43 0,-13.27 4.42,-24.33 13.26,-32.43 9.58,-8.11 22.85,-11.79 40.55,-11.79l339.82 0c18.43,0 32.44,3.68 41.28,12.53 8.85,8.11 14.01,18.43 14.01,31.7 0,13.27 -5.15,24.32 -14.01,32.43 -8.84,7.37 -22.85,11.79 -41.28,11.79zm118.68 221.14l0 -253.57c0,-22.12 5.16,-37.59 14.75,-48.65 9.58,-11.06 22.11,-16.22 38.33,-16.22 16.22,0 29.49,5.16 39.06,16.22 9.58,11.06 14.75,27.28 14.75,48.65l0 259.47c0,29.49 3.69,53.81 10.32,73.71 5.89,19.9 17.69,35.38 34.65,46.44 16.95,11.06 40.53,16.22 70.76,16.22 41.28,0 70.77,-11.06 88.46,-33.17 16.96,-22.12 25.8,-56.03 25.8,-100.99l0 -261.68c0,-22.12 5.16,-38.33 14.75,-48.65 9.58,-11.06 22.11,-16.22 38.32,-16.22 16.22,0 28.76,5.16 39.07,16.22 9.58,10.32 14.75,26.53 14.75,48.65l0 253.57c0,41.28 -3.69,75.93 -11.8,103.2 -8.11,28.01 -23.59,51.6 -45.7,72.97 -19.17,17.69 -41.28,30.22 -67.08,38.33 -25.06,8.85 -55.28,12.53 -89.19,12.53 -40.55,0 -75.19,-4.42 -104.68,-13.26 -29.49,-8.85 -53.07,-22.12 -71.5,-40.55 -18.43,-18.43 -32.44,-42.02 -40.55,-70.76 -8.84,-28.75 -13.27,-62.66 -13.27,-102.47zm737.88 138.58l-84.77 -336.13 0 364.14c0,19.9 -4.42,35.39 -13.27,44.97 -8.84,10.32 -21.38,15.48 -36.12,15.48 -14,0 -25.79,-5.16 -34.65,-14.74 -9.58,-10.32 -14.01,-25.06 -14.01,-45.7l0 -417.22c0,-23.59 5.89,-39.07 17.69,-47.17 12.54,-8.11 28.76,-11.79 48.66,-11.79l33.17 0c19.9,0 34.65,1.47 43.49,5.16 8.85,3.69 15.48,10.32 19.9,19.9 4.42,8.84 9.58,24.32 14.75,45.7l76.66 288.96 76.66 -288.96c5.9,-21.38 10.32,-36.86 14.74,-45.7 4.43,-9.58 11.06,-16.22 19.9,-19.9 8.85,-3.69 23.59,-5.16 43.5,-5.16l33.17 0c19.9,0 36.12,3.68 48.65,11.79 11.79,8.11 17.69,23.59 17.69,47.17l0 417.22c0,19.9 -4.42,35.39 -13.27,44.97 -8.84,10.32 -21.37,15.48 -36.12,15.48 -14,0 -25.8,-5.16 -34.65,-15.48 -9.58,-9.58 -14.01,-25.06 -14.01,-44.97l0 -364.14 -84.77 336.13c-5.15,21.38 -9.58,37.59 -13.26,47.92 -3.68,10.32 -9.59,19.16 -19.16,28.01 -9.58,8.11 -22.12,12.53 -39.07,12.53 -12.53,0 -22.85,-2.95 -31.69,-8.11 -8.85,-5.16 -15.48,-12.53 -19.91,-20.64 -5.15,-8.85 -8.84,-17.69 -11.79,-28.01 -2.21,-10.32 -5.15,-20.64 -8.11,-31.7zm773.25 19.9l-25.06 -66.34 -214.5 0 -25.06 67.81c-9.58,25.8 -18.42,44.23 -25.06,53.07 -7.37,9.59 -18.43,14.01 -34.65,14.01 -13.28,0 -25.07,-5.16 -35.38,-14.74 -10.32,-9.58 -15.48,-21.38 -15.48,-33.17 0,-7.37 1.48,-14.75 3.69,-22.85 2.21,-7.37 6.63,-18.43 11.79,-31.7l134.89 -342.77c3.69,-9.58 8.84,-21.38 14.01,-35.38 5.15,-14.01 11.05,-25.06 16.95,-34.65 6.64,-8.85 14.75,-16.22 24.33,-22.11 10.32,-5.16 22.11,-8.11 36.86,-8.11 14.74,0 27.27,2.95 37.59,8.11 9.58,5.89 17.69,13.26 23.59,22.11 6.63,8.85 11.79,18.43 15.48,28.75 4.42,10.32 9.58,23.59 16.22,40.54l137.84 340.56c11.06,25.8 16.22,44.96 16.22,56.76 0,11.79 -5.16,22.85 -15.48,33.17 -9.58,10.32 -22.12,15.48 -36.85,15.48 -8.12,0 -15.48,-1.47 -21.38,-4.42 -5.9,-2.95 -11.06,-7.38 -15.48,-12.53 -3.69,-5.16 -8.11,-13.27 -12.53,-23.59 -5.16,-10.32 -8.85,-19.9 -12.54,-28.01zm-211.56 -146.69l157.75 0 -79.62 -217.45 -78.13 217.45zm608.88 0.74l-98.04 0 0 149.64c0,21.38 -5.16,36.86 -14.75,47.92 -10.32,11.79 -22.85,16.95 -38.33,16.95 -16.22,0 -29.48,-5.16 -39.06,-16.22 -9.58,-11.06 -14.75,-27.27 -14.75,-47.91l0 -406.9c0,-23.59 5.17,-40.54 16.22,-50.86 11.06,-9.58 28.02,-14.74 51.6,-14.74l137.11 0c40.53,0 71.5,2.95 93.61,9.58 21.38,5.9 40.55,15.48 56.03,29.49 15.48,14.01 27.28,30.96 35.38,50.86 8.84,20.63 12.53,43.49 12.53,68.55 0,53.81 -16.21,94.35 -49.39,122.37 -33.17,27.28 -82.56,41.28 -148.16,41.28zm-25.8 -241.78l-72.24 0 0 161.43 72.24 0c25.06,0 46.44,-2.95 63.4,-8.11 16.22,-5.16 29.49,-14.01 38.32,-25.8 8.85,-11.8 13.28,-28.02 13.28,-47.18 0,-23.59 -6.64,-42.02 -20.65,-56.76 -15.47,-15.48 -46.43,-23.59 -94.35,-23.59z"/>
   <path class="fil1" d="M1460.1 208.28c117.9,0 173.53,5.18 281.69,55.54 10.18,4.74 13.42,5.7 23.07,11.03 30.43,16.79 78.03,45.77 101.69,68.82 29.02,28.28 26.13,19.1 51.47,50.84 5.8,7.26 10.08,10.54 16.73,17.36 47.41,48.65 101.73,158.87 117.28,223.73 35.53,148.03 21.28,257.9 -34.4,395.44 -6.43,15.86 -9.45,21.02 -17.87,35.18 -7.64,12.86 -11.55,21.24 -19.31,33.74l-70.37 88.77c-18.68,18.47 -35.13,34.22 -55.36,50.74 -17.69,14.45 -41.55,32.3 -62.47,43.62 -25.83,13.97 -43.81,25.53 -72.84,37.04 -117.71,46.66 -238.05,61.96 -363.16,30.2 -113.45,-28.8 -194.52,-74.46 -274.11,-154.05l-72.97 -86.17c-46.01,-64.94 -92.58,-189.98 -94.7,-276.64 -0.53,-21.71 -4.66,-27.54 -4.04,-49.25 4.52,-158.33 65.13,-300.73 175.48,-412.08 11.47,-11.57 16.1,-14.53 28.24,-24.81 37,-31.31 85.31,-67.27 130.49,-85.49 63.75,-25.71 130.35,-53.58 215.44,-53.58zm-754.02 530.47c0,85.96 -2.67,97.44 11.85,185.17 10.57,63.78 35.09,131.87 61.38,188.7 52.37,113.19 78.56,59.75 -83.66,221.96 -45.13,45.13 -87.48,87.48 -132.61,132.61 -43.14,43.14 -164.74,157.46 -193.03,204.83 -101.25,169.53 67.68,337.89 234.02,237.8 51.24,-30.83 158.04,-145.29 205.3,-192.55l231.13 -231.13c54.44,-54.64 34.64,-19.28 211.77,47.78 177.77,67.3 417.7,46.05 582.99,-37.34 76.28,-38.48 130.16,-73.89 192.21,-133.66 10.45,-10.07 16.97,-12.12 26.72,-22.54 8.96,-9.58 10.73,-14.86 20.65,-24.82 58.35,-58.63 95.26,-125.62 131.76,-197.89 109.23,-216.34 90.62,-521.69 -32.46,-725.38 -58.48,-96.78 -135.07,-185.4 -228.25,-249.18 -48.64,-33.29 -63.1,-41.81 -119.43,-70.02 -190.02,-95.14 -472.05,-98.87 -663.16,-2.51 -62.29,31.4 -58.31,27.26 -118.47,67.2 -20.26,13.45 -35.78,26.23 -54.05,40.67 -10.89,8.62 -14.13,11.06 -24.15,21.32 -10.83,11.08 -15.72,13.19 -26.56,22.69 -16.87,14.78 -71.38,83.6 -85.32,100.36 -79.73,95.85 -148.63,287.72 -148.63,415.93z"/>
   <path class="fil0" d="M1765.2 574.54l-182.37 0 0 600.18c0,34.62 -8.07,60.01 -23.08,76.18 -15,17.31 -35.78,25.39 -60.01,25.39 -24.24,0 -45.02,-8.08 -61.17,-25.39 -15.01,-17.31 -23.09,-42.71 -23.09,-76.18l0 -600.18 -182.35 0c-28.86,0 -49.64,-6.93 -63.48,-18.47 -13.85,-12.7 -20.78,-30.01 -20.78,-50.79 0,-20.78 6.92,-38.09 20.78,-50.79 15,-12.69 35.78,-18.47 63.48,-18.47l532.08 0c28.85,0 50.78,5.77 64.63,19.62 13.85,12.7 21.93,28.85 21.93,49.63 0,20.78 -8.08,38.09 -21.93,50.79 -13.86,11.54 -35.78,18.47 -64.63,18.47z"/>
  </g>
 </g>
</svg>
