<?xml version="1.0" encoding="UTF-8"?>
<!DOCTYPE svg PUBLIC "-//W3C//DTD SVG 1.1//EN" "http://www.w3.org/Graphics/SVG/1.1/DTD/svg11.dtd">
<!-- Creator: CorelDRAW 2019 (64-Bit) -->
<svg xmlns="http://www.w3.org/2000/svg" xml:space="preserve" width="48.0649mm" height="49.009mm" version="1.1" style="shape-rendering:geometricPrecision; text-rendering:geometricPrecision; image-rendering:optimizeQuality; fill-rule:evenodd; clip-rule:evenodd"
viewBox="0 0 1176.28 1199.38"
 xmlns:xlink="http://www.w3.org/1999/xlink">
 <defs>
  <style type="text/css">
   <![CDATA[
    .fil1 {fill:#0A9D97}
    .fil0 {fill:#0A9D97;fill-rule:nonzero}
   ]]>
  </style>
 </defs>
 <g id="Capa_x0020_1">
  <metadata id="CorelCorpID_0Corel-Layer"/>
  <g id="_1100781488">
   <path class="fil0" d="M176.84 998.04l-52.32 0 0 172.2c0,9.94 -2.32,17.22 -6.62,21.86 -4.3,4.97 -10.26,7.29 -17.22,7.29 -6.96,0 -12.92,-2.32 -17.55,-7.29 -4.3,-4.97 -6.62,-12.25 -6.62,-21.86l0 -172.2 -52.32 0c-8.28,0 -14.24,-1.99 -18.22,-5.3 -3.97,-3.64 -5.96,-8.61 -5.96,-14.57 0,-5.96 1.99,-10.93 5.96,-14.57 4.3,-3.64 10.27,-5.3 18.22,-5.3l152.66 0c8.28,0 14.57,1.65 18.55,5.63 3.98,3.64 6.29,8.28 6.29,14.24 0,5.96 -2.32,10.93 -6.29,14.57 -3.97,3.31 -10.27,5.3 -18.55,5.3zm53.32 99.35l0 -113.92c0,-9.94 2.32,-16.89 6.62,-21.86 4.3,-4.97 9.93,-7.29 17.22,-7.29 7.29,0 13.25,2.32 17.55,7.29 4.3,4.97 6.62,12.25 6.62,21.86l0 116.57c0,13.25 1.66,24.17 4.64,33.12 2.65,8.94 7.95,15.9 15.57,20.86 7.61,4.97 18.21,7.29 31.79,7.29 18.55,0 31.79,-4.97 39.74,-14.9 7.62,-9.94 11.59,-25.17 11.59,-45.37l0 -117.56c0,-9.94 2.32,-17.22 6.62,-21.86 4.3,-4.97 9.93,-7.29 17.22,-7.29 7.29,0 12.92,2.32 17.55,7.29 4.3,4.64 6.62,11.92 6.62,21.86l0 113.92c0,18.55 -1.66,34.11 -5.3,46.36 -3.64,12.58 -10.6,23.18 -20.53,32.78 -8.61,7.95 -18.55,13.58 -30.14,17.22 -11.26,3.97 -24.83,5.63 -40.07,5.63 -18.22,0 -33.78,-1.98 -47.03,-5.96 -13.25,-3.97 -23.84,-9.94 -32.12,-18.22 -8.28,-8.28 -14.57,-18.88 -18.22,-31.79 -3.97,-12.92 -5.96,-28.15 -5.96,-46.03zm331.49 62.26l-38.08 -151.01 0 163.59c0,8.94 -1.98,15.9 -5.96,20.2 -3.97,4.64 -9.6,6.95 -16.23,6.95 -6.29,0 -11.59,-2.32 -15.56,-6.62 -4.3,-4.64 -6.29,-11.26 -6.29,-20.53l0 -187.44c0,-10.6 2.65,-17.55 7.95,-21.19 5.63,-3.64 12.92,-5.3 21.86,-5.3l14.9 0c8.94,0 15.56,0.66 19.54,2.32 3.97,1.66 6.96,4.64 8.94,8.94 1.99,3.97 4.3,10.93 6.62,20.53l34.44 129.82 34.44 -129.82c2.65,-9.6 4.64,-16.56 6.62,-20.53 1.99,-4.3 4.97,-7.29 8.94,-8.94 3.98,-1.66 10.6,-2.32 19.54,-2.32l14.9 0c8.94,0 16.23,1.65 21.85,5.3 5.3,3.64 7.95,10.6 7.95,21.19l0 187.44c0,8.94 -1.98,15.9 -5.96,20.2 -3.97,4.64 -9.6,6.95 -16.23,6.95 -6.29,0 -11.59,-2.32 -15.56,-6.95 -4.3,-4.3 -6.29,-11.26 -6.29,-20.2l0 -163.59 -38.08 151.01c-2.32,9.6 -4.3,16.89 -5.96,21.53 -1.65,4.64 -4.31,8.61 -8.61,12.58 -4.3,3.64 -9.94,5.63 -17.55,5.63 -5.63,0 -10.27,-1.32 -14.24,-3.64 -3.98,-2.32 -6.96,-5.63 -8.94,-9.27 -2.32,-3.97 -3.97,-7.95 -5.3,-12.58 -0.99,-4.64 -2.32,-9.27 -3.64,-14.24zm347.38 8.94l-11.26 -29.81 -96.37 0 -11.26 30.47c-4.3,11.59 -8.28,19.87 -11.26,23.84 -3.31,4.31 -8.28,6.29 -15.56,6.29 -5.96,0 -11.26,-2.32 -15.9,-6.62 -4.64,-4.3 -6.96,-9.6 -6.96,-14.9 0,-3.31 0.66,-6.62 1.66,-10.27 0.99,-3.31 2.98,-8.28 5.3,-14.24l60.6 -153.99c1.66,-4.3 3.97,-9.6 6.29,-15.9 2.32,-6.29 4.97,-11.26 7.61,-15.56 2.98,-3.97 6.63,-7.29 10.93,-9.93 4.64,-2.32 9.93,-3.64 16.56,-3.64 6.62,0 12.25,1.32 16.89,3.64 4.3,2.65 7.95,5.96 10.6,9.93 2.98,3.97 5.3,8.28 6.96,12.92 1.99,4.64 4.3,10.6 7.29,18.21l61.93 153c4.97,11.59 7.29,20.2 7.29,25.5 0,5.3 -2.32,10.27 -6.96,14.9 -4.3,4.64 -9.94,6.95 -16.56,6.95 -3.65,0 -6.96,-0.66 -9.6,-1.98 -2.65,-1.33 -4.97,-3.31 -6.96,-5.63 -1.66,-2.32 -3.64,-5.96 -5.63,-10.6 -2.32,-4.64 -3.98,-8.94 -5.63,-12.58zm-95.04 -65.9l70.87 0 -35.77 -97.69 -35.1 97.69zm273.54 0.33l-44.05 0 0 67.22c0,9.61 -2.32,16.56 -6.62,21.53 -4.64,5.3 -10.27,7.62 -17.22,7.62 -7.29,0 -13.24,-2.32 -17.55,-7.29 -4.3,-4.97 -6.63,-12.25 -6.63,-21.52l0 -182.8c0,-10.6 2.32,-18.21 7.29,-22.85 4.97,-4.3 12.59,-6.62 23.18,-6.62l61.6 0c18.21,0 32.12,1.32 42.05,4.3 9.6,2.65 18.22,6.96 25.17,13.25 6.96,6.29 12.25,13.91 15.9,22.85 3.97,9.27 5.63,19.54 5.63,30.8 0,24.17 -7.28,42.39 -22.19,54.97 -14.9,12.25 -37.09,18.55 -66.56,18.55zm-11.59 -108.62l-32.45 0 0 72.52 32.45 0c11.26,0 20.86,-1.32 28.48,-3.64 7.29,-2.32 13.25,-6.29 17.22,-11.59 3.98,-5.3 5.96,-12.59 5.96,-21.2 0,-10.6 -2.98,-18.88 -9.28,-25.5 -6.95,-6.96 -20.86,-10.6 -42.39,-10.6z"/>
   <path class="fil1" d="M655.95 93.57c52.97,0 77.96,2.33 126.55,24.95 4.57,2.13 6.03,2.56 10.36,4.96 13.67,7.54 35.06,20.56 45.68,30.92 13.04,12.7 11.74,8.58 23.12,22.84 2.6,3.26 4.53,4.73 7.52,7.8 21.3,21.86 45.7,71.37 52.69,100.51 15.96,66.5 9.56,115.86 -15.45,177.65 -2.89,7.12 -4.25,9.44 -8.03,15.8 -3.43,5.78 -5.19,9.54 -8.67,15.16l-31.61 39.88c-8.39,8.3 -15.78,15.37 -24.87,22.79 -7.95,6.49 -18.67,14.51 -28.07,19.6 -11.6,6.27 -19.68,11.47 -32.72,16.64 -52.88,20.96 -106.94,27.84 -163.15,13.57 -50.97,-12.94 -87.39,-33.45 -123.14,-69.21l-32.78 -38.71c-20.67,-29.17 -41.59,-85.35 -42.54,-124.28 -0.24,-9.75 -2.09,-12.37 -1.81,-22.13 2.03,-71.13 29.26,-135.1 78.84,-185.13 5.15,-5.2 7.23,-6.53 12.69,-11.14 16.62,-14.06 38.33,-30.22 58.62,-38.4 28.64,-11.55 58.56,-24.07 96.79,-24.07zm-338.75 238.32c0,38.62 -1.2,43.78 5.33,83.19 4.75,28.65 15.77,59.24 27.58,84.77 23.53,50.85 35.29,26.84 -37.58,99.72 -20.28,20.27 -39.3,39.3 -59.58,59.58 -19.38,19.38 -74.01,70.74 -86.72,92.02 -45.49,76.16 30.4,151.8 105.13,106.83 23.02,-13.85 71,-65.27 92.23,-86.5l103.84 -103.84c24.46,-24.55 15.56,-8.66 95.14,21.46 79.86,30.23 187.65,20.69 261.91,-16.78 34.27,-17.29 58.48,-33.2 86.35,-60.05 4.69,-4.53 7.63,-5.45 12,-10.12 4.02,-4.3 4.82,-6.68 9.28,-11.15 26.22,-26.34 42.8,-56.44 59.19,-88.9 49.07,-97.19 40.71,-234.37 -14.58,-325.88 -26.27,-43.48 -60.68,-83.29 -102.54,-111.94 -21.85,-14.96 -28.35,-18.79 -53.66,-31.46 -85.37,-42.74 -212.07,-44.42 -297.93,-1.13 -27.98,14.11 -26.2,12.25 -53.22,30.19 -9.1,6.04 -16.07,11.78 -24.28,18.27 -4.89,3.87 -6.35,4.97 -10.85,9.58 -4.87,4.98 -7.06,5.92 -11.93,10.19 -7.58,6.64 -32.07,37.56 -38.33,45.09 -35.82,43.06 -66.77,129.26 -66.77,186.86z"/>
   <path class="fil0" d="M793.02 258.11l-81.93 0 0 269.63c0,15.55 -3.63,26.96 -10.37,34.22 -6.74,7.78 -16.08,11.41 -26.96,11.41 -10.89,0 -20.22,-3.63 -27.48,-11.41 -6.74,-7.78 -10.37,-19.19 -10.37,-34.22l0 -269.63 -81.92 0c-12.97,0 -22.3,-3.11 -28.52,-8.3 -6.22,-5.7 -9.33,-13.48 -9.33,-22.82 0,-9.33 3.11,-17.11 9.33,-22.82 6.74,-5.7 16.08,-8.3 28.52,-8.3l239.04 0c12.96,0 22.81,2.59 29.04,8.82 6.22,5.7 9.85,12.96 9.85,22.3 0,9.33 -3.63,17.11 -9.85,22.82 -6.23,5.18 -16.07,8.3 -29.04,8.3z"/>
  </g>
 </g>
</svg>
