<?xml version="1.0" encoding="UTF-8"?>
<!DOCTYPE svg PUBLIC "-//W3C//DTD SVG 1.1//EN" "http://www.w3.org/Graphics/SVG/1.1/DTD/svg11.dtd">
<!-- Creator: CorelDRAW 2019 (64-Bit) -->
<svg xmlns="http://www.w3.org/2000/svg" xml:space="preserve" width="40mm" height="40mm" version="1.1" style="shape-rendering:geometricPrecision; text-rendering:geometricPrecision; image-rendering:optimizeQuality; fill-rule:evenodd; clip-rule:evenodd"
viewBox="0 0 4000 4000"
 xmlns:xlink="http://www.w3.org/1999/xlink">
 <defs>
  <style type="text/css">
   <![CDATA[
    .fil0 {fill:white}
   ]]>
  </style>
 </defs>
 <g id="Capa_x0020_1">
  <metadata id="CorelCorpID_0Corel-Layer"/>
  <path class="fil0" d="M274.52 3569.2l0 -2218.8 3437.7 0 0 2218.8c0,73.17 -51.86,125.02 -125.1,125.02l-3187.57 0c-73.17,0 -125.03,-51.85 -125.03,-125.02zm0 -3125.07c0,-73.23 51.86,-125.02 125.03,-125.02l3187.57 0c194.43,0 125.1,363.38 125.1,749.97l-3437.7 0 0 -624.95zm-281.18 -31.32l0 3187.58c0,217.69 212.23,375.02 437.53,375.02l3125.06 0c225.23,0 437.47,-157.33 437.47,-375.02l0 -3187.58c0,-217.63 -212.24,-374.95 -437.47,-374.95l-3125.06 0c-225.3,0 -437.53,157.32 -437.53,374.95z"/>
  <rect class="fil0" x="478.49" y="1788.38" width="3113.27" height="264.59" rx="132.3" ry="132.3"/>
  <rect class="fil0" x="478.49" y="2255.82" width="3113.27" height="264.59" rx="132.3" ry="132.3"/>
  <rect class="fil0" x="478.5" y="2776.16" width="2363.62" height="264.59" rx="100.44" ry="132.3"/>
  <circle class="fil0" cx="681.35" cy="694.78" r="165.37"/>
  <circle class="fil0" cx="1099.41" cy="694.78" r="165.37"/>
  <circle class="fil0" cx="1536.84" cy="694.78" r="165.37"/>
 </g>
</svg>
