<?xml version="1.0" encoding="UTF-8"?>
<!DOCTYPE svg PUBLIC "-//W3C//DTD SVG 1.1//EN" "http://www.w3.org/Graphics/SVG/1.1/DTD/svg11.dtd">
<!-- Creator: CorelDRAW 2019 (64-Bit) -->
<svg xmlns="http://www.w3.org/2000/svg" xml:space="preserve" width="40mm" height="40mm" version="1.1" style="shape-rendering:geometricPrecision; text-rendering:geometricPrecision; image-rendering:optimizeQuality; fill-rule:evenodd; clip-rule:evenodd"
viewBox="0 0 4000 4000"
 xmlns:xlink="http://www.w3.org/1999/xlink">
 <defs>
  <style type="text/css">
   <![CDATA[
    .fil0 {fill:white}
    .fil1 {fill:#0FAFAA;fill-rule:nonzero}
   ]]>
  </style>
 </defs>
 <g id="Capa_x0020_1">
  <metadata id="CorelCorpID_0Corel-Layer"/>
  <g id="_983910448">
   <path class="fil0" d="M1993.49 6.68c1104.59,0 1999.91,895.4 1999.91,1999.91 0,1104.6 -895.32,2000 -1999.91,2000 -1104.6,0 -2000.09,-895.4 -2000.09,-2000 0,-1104.51 895.49,-1999.91 2000.09,-1999.91z"/>
   <path class="fil1" d="M2806.44 2835.37c-138.96,-46.32 -224.31,-67.86 -360.28,-115.41 -76.74,-26.99 -108.47,-78.58 -119.28,-133.96l696.14 0c-142.66,-471.12 46.67,-1229.14 0,-1565.79 -69.35,-498.81 -586.09,-805.92 -946.29,-764.35 -307.47,35.43 -463.31,293.84 -502.51,368.73 -23.29,20.04 -45.79,42.1 -68.21,64.78 -86.31,-19.16 -231.52,-17.84 -329.96,187.48 -272.39,567.99 23.2,1265.8 -111.54,1709.15l591.98 0c-11.51,55.38 -42.45,106.97 -115.41,133.96 -135.27,49.66 -221.41,66.8 -360.28,113.21 -249.46,82.97 -417.78,81.74 -563.51,342.88 -6.68,11.69 -13.18,24.35 -19.6,37.62 349.04,372.6 845.21,605.52 1395.89,605.52 550.58,0 1046.67,-232.75 1395.53,-605.25 -6.33,-12.92 -12.74,-25.23 -19.16,-36.83 -145.82,-261.14 -313.97,-258.5 -563.51,-341.74z"/>
  </g>
 </g>
</svg>
