<?xml version="1.0" encoding="UTF-8"?>
<!DOCTYPE svg PUBLIC "-//W3C//DTD SVG 1.1//EN" "http://www.w3.org/Graphics/SVG/1.1/DTD/svg11.dtd">
<!-- Creator: CorelDRAW 2019 (64-Bit) -->
<svg xmlns="http://www.w3.org/2000/svg" xml:space="preserve" width="40mm" height="40mm" version="1.1" style="shape-rendering:geometricPrecision; text-rendering:geometricPrecision; image-rendering:optimizeQuality; fill-rule:evenodd; clip-rule:evenodd"
viewBox="0 0 4000 4000"
 xmlns:xlink="http://www.w3.org/1999/xlink">
 <defs>
  <style type="text/css">
   <![CDATA[
    .fil1 {fill:#0A9D97}
    .fil0 {fill:white}
   ]]>
  </style>
 </defs>
 <g id="Capa_x0020_1">
  <metadata id="CorelCorpID_0Corel-Layer"/>
  <g id="_1100811440">
   <path class="fil0" d="M1993.49 6.68c1104.59,0 1999.91,895.4 1999.91,1999.91 0,1104.6 -895.32,2000 -1999.91,2000 -1104.6,0 -2000.09,-895.4 -2000.09,-2000 0,-1104.51 895.49,-1999.91 2000.09,-1999.91z"/>
   <path class="fil1" d="M3157.94 3403.79c-171.13,-72.25 -410.83,-175.7 -444.58,-246.11 -12.13,-24.96 -30.59,-84.9 -36.74,-118.48 -4.66,-25.05 -5.36,-47.03 -9.4,-71.37 -14.07,-83.15 8.17,39.11 -5.63,-27.43 -0.7,-3.34 -2.99,-6.06 -3.6,-13 -7.74,-101.17 -159.54,109.6 -145.91,-337.18 2.37,-76.99 98.88,-244.35 127.54,-342.44 63.46,-217.28 13.71,-94.14 78.05,-156.37 59.06,-57.13 140.54,-387.62 114.53,-464.18 -14.24,-41.49 0.7,-6.07 -53.71,-55.03 13.1,-200.22 103.11,-607.54 -31.9,-751.86 -33.84,-36.13 -48.79,-24.97 -74.63,-65.66 -33.31,-52.65 1.06,-35.86 -50.01,-92.21 -280.48,-308.6 -656.59,-184.23 -878.79,-277.84l51.86 74.28 -75.51 23.38c-38.76,46.41 -139.66,13.8 -257.71,118.31 -146.7,129.64 -16.26,91.41 -184.41,254.72 -158.3,153.64 -66.09,482.38 -51.06,716.88 -3.08,2.64 -8,5.1 -9.85,6.6l-18.37 13.36c-71.63,67.24 -6.06,253.49 17.84,335.32 97.92,337 52.48,-11.42 149.25,320.3 28.74,98.09 125.17,265.45 127.63,342.44 14.24,460.14 -124.2,206.74 -151.1,363.81 -41.48,240.83 -29,226.95 -237.76,328.73l-270.89 125.08c315.9,258.41 719.87,413.38 1160.06,413.38 442.47,0 848.11,-156.46 1164.8,-417.43z"/>
  </g>
 </g>
</svg>
